<svg width="12" height="12" viewBox="0 0 12 12" fill="none" xmlns="http://www.w3.org/2000/svg">
<path fill-rule="evenodd" clip-rule="evenodd" d="M5.81885 0.789376C5.87573 0.763507 5.93749 0.750122 5.99998 0.750122C6.06246 0.750122 6.12422 0.763507 6.1811 0.789376L10.9936 2.97688C11.07 3.01168 11.1347 3.06772 11.1802 3.13831C11.2256 3.2089 11.2497 3.29106 11.2497 3.375C11.2497 3.45894 11.2256 3.5411 11.1802 3.61169C11.1347 3.68229 11.07 3.73832 10.9936 3.77313L8.98198 4.6875L10.9936 5.60188C11.07 5.63668 11.1347 5.69272 11.1802 5.76331C11.2256 5.8339 11.2497 5.91606 11.2497 6C11.2497 6.08394 11.2256 6.1661 11.1802 6.23669C11.1347 6.30729 11.07 6.36333 10.9936 6.39813L8.98198 7.3125L10.9936 8.22688C11.07 8.26168 11.1347 8.31772 11.1802 8.38831C11.2256 8.4589 11.2497 8.54106 11.2497 8.625C11.2497 8.70894 11.2256 8.7911 11.1802 8.86169C11.1347 8.93229 11.07 8.98833 10.9936 9.02313L6.1811 11.2106C6.12422 11.2365 6.06246 11.2499 5.99998 11.2499C5.93749 11.2499 5.87573 11.2365 5.81885 11.2106L1.00635 9.02313C0.929971 8.98833 0.865211 8.93229 0.819801 8.86169C0.77439 8.7911 0.750244 8.70894 0.750244 8.625C0.750244 8.54106 0.77439 8.4589 0.819801 8.38831C0.865211 8.31772 0.929971 8.26168 1.00635 8.22688L3.01798 7.3125L1.00635 6.39813C0.929971 6.36333 0.865211 6.30729 0.819801 6.23669C0.77439 6.1661 0.750244 6.08394 0.750244 6C0.750244 5.91606 0.77439 5.8339 0.819801 5.76331C0.865211 5.69272 0.929971 5.63668 1.00635 5.60188L3.01798 4.6875L1.00635 3.77313C0.929971 3.73832 0.865211 3.68229 0.819801 3.61169C0.77439 3.5411 0.750244 3.45894 0.750244 3.375C0.750244 3.29106 0.77439 3.2089 0.819801 3.13831C0.865211 3.06772 0.929971 3.01168 1.00635 2.97688L5.81885 0.789376ZM4.07498 7.79288L2.24448 8.625L5.99998 10.3313L9.75548 8.625L7.92498 7.79375L6.1811 8.58563C6.12422 8.61149 6.06246 8.62488 5.99998 8.62488C5.93749 8.62488 5.87573 8.61149 5.81885 8.58563L4.07498 7.79288ZM2.24448 3.375L5.99998 5.08125L9.75548 3.375L5.99998 1.66875L2.24448 3.375Z" fill="black"/>
</svg>
