<svg width="17" height="8" viewBox="0 0 17 8" fill="none" xmlns="http://www.w3.org/2000/svg">
<path d="M4.25 4.9225C3.9915 4.9225 3.773 4.8335 3.5945 4.6555C3.416 4.4775 3.32675 4.259 3.32675 4C3.32675 3.741 3.416 3.5225 3.5945 3.3445C3.773 3.1665 3.9915 3.07725 4.25 3.07675C4.5085 3.07625 4.727 3.1655 4.9055 3.3445C5.084 3.5235 5.17325 3.742 5.17325 4C5.17325 4.258 5.084 4.4765 4.9055 4.6555C4.727 4.8345 4.5085 4.92375 4.25 4.92325M4.25 7.75C3.2115 7.75 2.327 7.38475 1.5965 6.65425C0.866 5.92375 0.500501 5.039 0.500001 4C0.499501 2.961 0.865 2.0765 1.5965 1.3465C2.328 0.6165 3.2125 0.251 4.25 0.25C5.02 0.25 5.7145 0.45875 6.3335 0.87625C6.9525 1.29325 7.40425 1.8345 7.68875 2.5H14.5917L16.0917 4L13.697 6.3655L12.413 5.3995L11.0578 6.394L9.7235 5.5H7.68875C7.40375 6.156 6.952 6.695 6.3335 7.117C5.715 7.539 5.0205 7.75 4.25 7.75ZM4.25 7C4.9885 7 5.6185 6.77775 6.14 6.33325C6.6615 5.88875 6.9955 5.361 7.142 4.75H9.962L11.0345 5.47525L12.428 4.4755L13.6437 5.392L15.0358 4L14.2858 3.25H7.142C6.996 2.6385 6.662 2.11075 6.14 1.66675C5.618 1.22275 4.988 1.0005 4.25 1C3.425 1 2.71875 1.29375 2.13125 1.88125C1.54375 2.46875 1.25 3.175 1.25 4C1.25 4.825 1.54375 5.53125 2.13125 6.11875C2.71875 6.70625 3.425 7 4.25 7Z" fill="black"/>
</svg>
