<svg viewBox="20 0 90 100">
  <defs id="SvgjsDefs2893"/>
  <!-- <g id="SvgjsG2894" featurekey="symbolContainer" transform="matrix(1,0,0,1,0,0)" fill="none">
    <rect xmlns="http://www.w3.org/2000/svg" width="118" height="113" rx="10" ry="10"/>
  </g> -->
  <!-- <g id="SvgjsG2895" featurekey="uHI19F-0" transform="matrix(0.13814757791356924,0,0,0.13814757791356924,17.800167115078953,15.841759169580417)" fill="">
    <g xmlns="http://www.w3.org/2000/svg" transform="translate(0.000000,600.000000) scale(0.100000,-0.100000)" fill="#303841" stroke="none">
      <path d="M3823 5689 c-157 -20 -367 -116 -546 -249 -133 -99 -333 -292 -440 -425 -141 -175 -270 -385 -348 -564 l-36 -84 34 -96 c72 -201 117 -414 132 -623 4 -69 11 -131 15 -137 5 -7 41 -11 95 -11 101 0 206 24 319 72 l76 33 2 70 c6 192 135 340 391 450 74 32 185 65 265 79 42 8 81 52 183 211 400 620 402 1210 4 1275 -35 5 -68 9 -74 9 -5 -1 -38 -5 -72 -10z"/>
      <path d="M1325 5338 c-118 -44 -207 -165 -257 -349 -21 -76 -23 -106 -23 -299 0 -182 4 -232 23 -326 65 -325 166 -591 321 -852 105 -176 168 -255 211 -263 279 -56 495 -124 675 -214 l127 -62 39 59 c61 96 96 208 114 364 l7 62 -47 23 c-57 29 -125 100 -159 168 -46 89 -59 169 -52 321 5 134 13 177 56 322 l22 76 -45 101 c-100 222 -235 431 -382 588 -105 113 -192 180 -313 241 -90 45 -98 46 -190 49 -54 1 -110 -2 -127 -9z"/>
      <path d="M3953 4166 l-92 -11 -64 -75 c-144 -168 -335 -338 -499 -444 -56 -36 -88 -64 -88 -75 0 -25 66 -130 122 -195 26 -30 84 -82 128 -115 l81 -61 37 25 c58 38 121 57 197 57 179 2 351 -86 543 -278 l102 -103 111 -12 c144 -15 485 -6 602 15 143 27 256 63 367 118 132 64 234 160 269 252 105 282 -205 604 -758 786 -334 110 -741 155 -1058 116z"/>
      <path d="M995 3210 c-409 -35 -713 -176 -806 -374 -145 -307 253 -682 907 -852 254 -66 564 -95 809 -76 85 7 161 15 169 18 8 3 58 54 110 114 145 165 330 323 496 426 33 20 60 42 60 49 0 6 -14 40 -31 74 -36 72 -164 208 -247 263 l-53 36 -71 -37 c-69 -35 -74 -36 -182 -36 -105 0 -115 2 -192 36 -119 52 -217 122 -332 237 l-104 103 -71 8 c-116 15 -354 20 -462 11z"/>
      <path d="M3519 3068 c-63 -85 -110 -229 -124 -376 l-7 -67 46 -24 c57 -30 126 -103 160 -169 75 -149 75 -369 -1 -625 l-26 -87 29 -72 c16 -39 59 -128 96 -196 192 -351 431 -600 670 -694 78 -32 225 -32 289 0 103 51 187 173 230 337 30 113 37 357 15 520 -39 298 -147 617 -302 897 -55 98 -105 175 -198 301 -9 11 -41 22 -92 32 -238 42 -449 111 -644 210 l-110 55 -31 -42z"/>
      <path d="M3135 2580 c-68 -10 -156 -36 -241 -72 l-72 -30 -4 -86 c-3 -68 -10 -98 -30 -138 -94 -181 -310 -314 -609 -374 -55 -11 -57 -13 -111 -88 -428 -600 -513 -1211 -191 -1369 46 -22 74 -28 147 -31 265 -12 586 157 901 472 176 176 305 343 425 551 58 100 140 276 140 301 0 9 -14 55 -31 102 -71 200 -118 433 -134 663 l-7 97 -45 6 c-52 7 -68 6 -138 -4z"/>
    </g>
  </g> -->
  <g id="SvgjsG6055" featurekey="uHI19F-0" transform="matrix(0.09383104583734009,0,0,0.09383104583734009,16.387504735262407,16.481335781099748)" fill="#59636e"><polygon xmlns="http://www.w3.org/2000/svg" class="st0" points="696.7,239.6 508.5,37.5 508.5,441.7 " style="stroke: #59636e; stroke-width: 1.1669; stroke-miterlimit: 10;"></polygon><polygon xmlns="http://www.w3.org/2000/svg" class="st0" points="822.2,454.8 832.1,178.8 546.2,464.6 " style="stroke: #59636e; stroke-width: 1.1669; stroke-miterlimit: 10;"></polygon><polygon xmlns="http://www.w3.org/2000/svg" class="st0" points="758.9,695.7 961,507.5 556.8,507.5 " style="stroke: #59636e; stroke-width: 1.1669; stroke-miterlimit: 10;"></polygon><polygon xmlns="http://www.w3.org/2000/svg" class="st0" points="543.7,821.2 819.7,831.1 533.9,545.2 " style="stroke: #59636e; stroke-width: 1.1669; stroke-miterlimit: 10;"></polygon><polygon xmlns="http://www.w3.org/2000/svg" class="st0" points="302.8,757.9 491,960 491,555.8 " style="stroke: #59636e; stroke-width: 1.1669; stroke-miterlimit: 10;"></polygon><polygon xmlns="http://www.w3.org/2000/svg" class="st0" points="177.3,542.7 167.4,818.7 453.3,532.9 " style="stroke: #59636e; stroke-width: 1.1669; stroke-miterlimit: 10;"></polygon><polygon xmlns="http://www.w3.org/2000/svg" class="st0" points="240.6,301.8 38.5,490 442.7,490 " style="stroke: #59636e; stroke-width: 1.1669; stroke-miterlimit: 10;"></polygon><polygon xmlns="http://www.w3.org/2000/svg" class="st0" points="455.8,176.3 179.8,166.4 465.6,452.3 " style="stroke: #59636e; stroke-width: 1.1669; stroke-miterlimit: 10;"></polygon><circle xmlns="http://www.w3.org/2000/svg" class="st0" cx="502.7" cy="497" r="31.4" style="stroke: #59636e; stroke-width: 1.1669; stroke-miterlimit: 10;"></circle></g>
</svg>
