<svg id="e7vUbLEczRW1" xmlns="http://www.w3.org/2000/svg" xmlns:xlink="http://www.w3.org/1999/xlink" viewBox="0 0 754 286" shape-rendering="geometricPrecision" text-rendering="geometricPrecision" project-id="b8356bf167f044faa7fa67566c9185c6" export-id="1abf7ac05d3f4d06a0bd3fe36778fe66" cached="false"><path d="M0,0C1,1,1,1,1.113525,3.31665C1.10567,4.816998,1.10567,4.816998,1.097656,6.347656c-.004834,1.619385-.004834,1.619385-.009765,3.271485-.012569,1.704463-.012569,1.704463-.025391,3.443359-.004512,1.140176-.009023,2.280352-.013672,3.455078C1.036997,19.345104,1.020514,22.172526,1,25c-.5605-.191909-1.121001-.383818-1.698486-.581543-4.963762-1.680171-9.924017-3.199142-14.989014-4.543457-1.862051-.498867-1.862051-.498867-3.761719-1.007812-13.101799-3.19978-29.406821-4.164589-41.660156,2.234375C-65.173114,23.70437,-67.496758,26.313422,-69,31c-.764355,5.684891-.542838,11.021417,2.481934,16.014893c6.596471,8.62591,18.643834,12.367427,28.330566,16.422607C-0.959586,79.045261,-0.959586,79.045261,7,97c3.711197,12.294137,3.732611,26.347661-2,38-6.073977,11.165162-14.795072,16.511025-26.433594,20.957031-10.011921,2.927912-19.735176,3.411011-30.128906,3.355469-.706154-.001823-1.412309-.003646-2.139862-.005524C-70.575692,159.233679,-87.638778,157.680611,-103,150c0-8.25,0-16.5,0-25c5.504003,1.651201,10.972414,3.307134,16.4375,5.0625c16.560848,5.051155,36.883062,8.130385,53.125.625c4.578852-2.567719,7.408859-4.792831,9.214844-9.875C-22.511671,114.333029,-22.948316,108.998858,-26,103c-6.852246-9.566447-23.303641-14.173109-33.75-18.5625C-76.504913,77.360136,-92.508681,68.65201,-99.875,51c-2.891334-9.792674-2.488631-22.764194,1.875-32c6.793691-12.413926,16.627826-20.310813,30.1875-24.3125C-45.364348,-11.392742,-21.42645,-8.365945,0,0Z" transform="translate(162 80)" fill="#383e40"/><path d="M0,0C9.57,0,19.14,0,29,0c.33,34.98.66,69.96,1,106c4.544957-4.544957,8.804364-8.843607,12.953125-13.667969C45.581669,89.337297,48.28933,86.420305,51,83.5c3.290589-3.54912,6.568791-7.101825,9.75-10.75.507246-.562112,1.014492-1.124224,1.537109-1.703369c1.768877-2.019109,1.768877-2.019109,3.165039-4.361817c2.992745-4.305267,5.123783-6.414469,10.382813-7.412841c4.564577-.268936,9.102933-.058631,13.665039.165527c1.60145.045205,3.203022.086259,4.804688.123047C98.206187,59.659136,102.101728,59.81405,106,60c-1.424324,2.978167-2.779033,4.979317-5.1875,7.25-2.448483,2.378239-4.773211,4.787995-7,7.375-3.115848,3.61076-6.322341,7.126266-9.5625,10.625-.513611.55478-1.027222,1.109561-1.556396,1.681152-1.047493,1.131129-2.095101,2.262151-3.142823,3.393067C72.621341,97.812203,65.745834,105.345701,59,113c4.016553,4.750849,8.124567,9.39476,12.375,13.9375.931025.995801.931025.995801,1.880859,2.011719c7.276832,7.713857,14.811258,15.173219,22.354981,22.624756C109.820774,165.641548,109.820774,165.641548,112,170c-29.876961,3.762908-29.876961,3.762908-39.324036-3.27182C66.255778,161.282497,61.097491,154.661707,56,148c-5.266196-6.374678-11.066284-12.186369-16.9375-18-2.990625-2.97-5.98125-5.94-9.0625-9-.33,16.17-.66,32.34-1,49-9.57,0-19.14,0-29,0C0,113.9,0,57.8,0,0Z" transform="translate(342 66)" fill="#59bc6e"/><path d="M0,0C11.282831,10.171906,16.062337,23.521806,17.539063,38.289063c0,5.94,0,11.88,0,18-31.02,0-62.04,0-94,0c4.808879,12.574633,4.808879,12.574633,14.71875,19.207031c18.715823,7.119056,41.134041,5.257099,60.224365.273681c2.658955-.621422,5.363431-1.031804,8.056885-1.480712c0,7.59,0,15.18,0,23-14.396867,4.036504-27.798868,6.394223-42.8125,6.375-1.974683-.002417-1.974683-.002417-3.989258-.004883-9.694227-.122166-18.06555-1.093764-27.198242-4.370117-1.36125-.415723-1.36125-.415723-2.75-.839844-12.292425-4.1679-22.793318-13.657126-28.777344-25.074219-7.459976-16.736293-7.379937-35.429527-1.59375-52.710937c4.893451-11.793423,13.48288-22.737741,25.121094-28.375C-51.126617,-17.631321,-21.257611,-16.35672,0,0ZM-71.3125,20.363281c-4.222578,5.733501-4.268935,8.010258-5.148437,15.925782c21.78,0,43.56,0,66,0-1.239843-9.918737-3.092832-15.196335-10.851563-21.527344-14.465141-9.915197-38.348608-7.450947-50,5.601562Z" transform="translate(294.461 135.711)" fill="#393f40"/><path d="M0,0C9.9,0,19.8,0,30,0c0,10.89,0,21.78,0,33c8.58,0,17.16,0,26,0c0,7.26,0,14.52,0,22-8.58,0-17.16,0-26,0c.046717,7.28785.097244,14.57398.183792,21.861191.039239,3.394108.071685,6.787959.087204,10.182266.021482,3.902605.068164,7.804232.119629,11.706543.001229,1.205515.002457,2.41103.003723,3.653076C30.514394,109.346851,31.089218,114.17095,35,120c3.820042,2.382752,7.431541,2.264359,11.8125,2.1875.686426-.000645,1.372852-.001289,2.080078-.001953C53.426415,122.146943,57.41606,121.654849,62,121c0,6.93,0,13.86,0,21-11.241908,5.620954-25.367166,5.605469-37.675781,3.316406C16.781861,142.74539,9.194104,137.890314,5,131c-4.765375-11.494973-5.153853-22.490209-5.097656-34.789062.001415-1.184437.00283-2.368874.004287-3.589203.005557-3.748939.018101-7.497815.030869-11.246735.005021-2.555989.009583-5.111978.013672-7.667969C-0.037857,67.471331,-0.020623,61.235676,0,55c-5.28,0-10.56,0-16,0c0-7.26,0-14.52,0-22c5.28,0,10.56,0,16,0C0,22.11,0,11.22,0,0Z" transform="translate(647 93)" fill="#3a4042"/><path d="M0,0c13.86.495,13.86.495,28,1c.33,4.95.66,9.9,1,15c1.381875-1.216875,2.76375-2.43375,4.1875-3.6875C45.401168,2.565717,59.849333,0.643514,75,1c0,7.26,0,14.52,0,22-3.3825.391875-6.765.78375-10.25,1.1875C52.687069,25.757503,41.17615,28.208322,33,38c-2.597544,4.445632-3.383981,7.701977-3.432373,12.831543-.010192.654365-.020383,1.308731-.030884,1.982925-.029967,2.142662-.03937,4.284876-.048462,6.42772-.016859,1.493596-.03501,2.987178-.054397,4.480743-.047376,3.915859-.077265,7.831661-.10344,11.747711-.035127,4.706716-.092104,9.413213-.145393,14.119751C29.106683,96.7269,29.055968,103.863124,29,111c-9.57,0-19.14,0-29,0C0,74.37,0,37.74,0,0Z" transform="translate(485 125)" fill="#363c3e"/><path d="M0,0C9.57,0,19.14,0,29,0c0,36.3,0,72.6,0,110-9.57,0-19.14,0-29,0C0,73.7,0,37.4,0,0Z" transform="translate(581 126)" fill="#363c3d"/><path d="M0,0C2.64,0,5.28,0,8,0C8,4.95,8,9.9,8,15c41.91,0,83.82,0,127,0c0-4.95,0-9.9,0-15c2.64,0,5.28,0,8,0c.05789,3.458263.093558,6.916403.125,10.375.016758.984844.033516,1.969688.050781,2.984375.006446.941016.012891,1.882031.019532,2.851563.010473.869311.020947,1.738623.031738,2.634277C143,21,143,21,141,23c-2.411324.251682-2.411324.251682-5.504028.253967-1.169427.00564-2.338853.01128-3.543717.01709-1.28942-.004048-2.57884-.008097-3.907333-.012268-1.366493.002709-2.732984.006269-4.099472.01062-3.716876.009138-7.433641.005574-11.150519-.000758-3.884161-.005053-7.768313-.000371-11.652475.002772-6.523577.003642-13.047109-.001165-19.570679-.010681-7.549253-.010885-15.098399-.007359-22.64765.003653-6.473913.009067-12.947793.010361-19.42171.005123-3.869969-.003123-7.739888-.00352-11.609854.003073-3.637763.005764-7.275386.001793-10.913134-.009789-1.977226-.00392-3.954464.002047-5.931684.008255-1.169427-.00564-2.338853-.011279-3.543717-.01709-1.020592-.000754-2.041185-.001508-3.092704-.002285C2,23,2,23,0,21c-.227051-2.154785-.227051-2.154785-.195312-4.789062.006445-.941016.01289-1.882032.019531-2.851563.016758-.984844.033515-1.969687.050781-2.984375.009023-.992578.018047-1.985156.027344-3.007812C-0.074041,4.911219,-0.041108,2.455728,0,0Z" transform="translate(327 247)" fill="#5cbe72"/><path d="M0,0c1.169426-.00571,2.338853-.01142,3.543716-.017303c1.93413-.001677,1.93413-.001677,3.907334-.003388c1.366492-.004627,2.732983-.009652,4.099472-.015045c3.716839-.013132,7.43366-.01957,11.150518-.024011c2.320039-.002928,4.640072-.007033,6.960108-.011504c7.252983-.013675,14.505955-.023342,21.758951-.027202c8.383986-.004485,16.767809-.022055,25.151746-.051c6.473906-.021579,12.947767-.031702,19.42171-.033041c3.870015-.00105,7.739877-.00701,11.609854-.02482c3.637793-.016415,7.275317-.018668,10.913133-.009861c1.977248.001144,3.954487-.012622,5.931685-.026752c1.169426.005569,2.338853.011138,3.543716.016876c1.020593-.001466,2.041186-.002933,3.092705-.004444.795737.122739,1.591474.245478,2.411324.371937c2.136043,3.204065,2.242089,3.996007,2.195312,7.667969-.009668,1.339013-.009668,1.339013-.019531,2.705078-.025137,1.393154-.025137,1.393154-.050781,2.814453-.009024.940371-.018047,1.880742-.027344,2.849609-.023566,2.321221-.056465,4.641927-.097656,6.962891-2.64,0-5.28,0-8,0c0-4.95,0-9.9,0-15-41.91,0-83.82,0-127,0c0,4.95,0,9.9,0,15-2.64,0-5.28,0-8,0c0-7.26,0-14.52,0-22C-4.880893,-0.171126,-2.938721,0.008565,0,0Z" transform="translate(334.504 31.8596)" fill="#60bf75"/><path d="M0,0C4.487418,2.486153,7.114749,5.406747,8.75,10.3125c.535048,6.313571-.272117,10.778649-4,16-4.298965,3.810446-8.356986,5.098425-14,5-5.026884-.937216-8.372789-2.372789-12-6-2.962109-4.494235-3.893356-8.699423-3-14c1.789773-5.292341,4.224453-8.938752,9-12C-9.819392,-2.497703,-5.152562,-2.388477,0,0Z" transform="translate(603.25 75.6875)" fill="#3b4143"/></svg>
