<svg width="18" height="18" viewBox="0 0 18 18" fill="none" xmlns="http://www.w3.org/2000/svg">
<path d="M9.83332 8.16666V6.49999H8.16666L8.18749 8.16666H1.91666V11.5H3.58332V9.83332H8.16666V11.5H9.83332V9.83332H14.4208L14.4167 11.5H16.0833V8.16666H9.83332ZM8.99999 0.666656C8.58794 0.666656 8.18515 0.788842 7.84255 1.01776C7.49995 1.24668 7.23292 1.57205 7.07524 1.95273C6.91756 2.33341 6.8763 2.7523 6.95669 3.15643C7.03707 3.56055 7.23549 3.93177 7.52685 4.22313C7.81821 4.51449 8.18942 4.71291 8.59355 4.79329C8.99768 4.87368 9.41657 4.83242 9.79725 4.67474C10.1779 4.51706 10.5033 4.25003 10.7322 3.90743C10.9611 3.56482 11.0833 3.16203 11.0833 2.74999C11.0833 2.19746 10.8638 1.66755 10.4731 1.27685C10.0824 0.88615 9.55252 0.666656 8.99999 0.666656ZM8.99999 3.58332C8.83517 3.58332 8.67405 3.53445 8.53701 3.44288C8.39997 3.35131 8.29316 3.22116 8.23009 3.06889C8.16702 2.91662 8.15051 2.74907 8.18267 2.58741C8.21482 2.42576 8.29419 2.27728 8.41073 2.16073C8.52728 2.04419 8.67576 1.96482 8.83741 1.93267C8.99906 1.90051 9.16662 1.91702 9.31889 1.98009C9.47116 2.04316 9.60131 2.14997 9.69288 2.28701C9.78445 2.42406 9.83332 2.58517 9.83332 2.74999C9.83332 2.971 9.74552 3.18296 9.58924 3.33924C9.43296 3.49553 9.221 3.58332 8.99999 3.58332ZM2.74999 13.1667C2.33795 13.1667 1.93515 13.2888 1.59255 13.5178C1.24995 13.7467 0.982924 14.0721 0.825242 14.4527C0.667559 14.8334 0.626302 15.2523 0.706688 15.6564C0.787074 16.0606 0.985492 16.4318 1.27685 16.7231C1.56821 17.0145 1.93943 17.2129 2.34355 17.2933C2.74768 17.3737 3.16657 17.3324 3.54725 17.1747C3.92793 17.0171 4.2533 16.75 4.48222 16.4074C4.71114 16.0648 4.83332 15.662 4.83332 15.25C4.83332 14.9764 4.77944 14.7055 4.67474 14.4527C4.57004 14.2 4.41658 13.9703 4.22313 13.7768C4.02967 13.5834 3.80001 13.4299 3.54725 13.3252C3.29449 13.2205 3.02358 13.1667 2.74999 13.1667ZM2.74999 16.0833C2.58517 16.0833 2.42406 16.0344 2.28702 15.9429C2.14997 15.8513 2.04316 15.7212 1.98009 15.5689C1.91702 15.4166 1.90052 15.2491 1.93267 15.0874C1.96482 14.9258 2.04419 14.7773 2.16073 14.6607C2.27728 14.5442 2.42576 14.4648 2.58742 14.4327C2.74907 14.4005 2.91662 14.417 3.06889 14.4801C3.22116 14.5432 3.35131 14.65 3.44288 14.787C3.53445 14.9241 3.58332 15.0852 3.58332 15.25C3.58332 15.471 3.49553 15.683 3.33925 15.8392C3.18297 15.9955 2.971 16.0833 2.74999 16.0833ZM8.99999 13.1667C8.58794 13.1667 8.18515 13.2888 7.84255 13.5178C7.49995 13.7467 7.23292 14.0721 7.07524 14.4527C6.91756 14.8334 6.8763 15.2523 6.95669 15.6564C7.03707 16.0606 7.23549 16.4318 7.52685 16.7231C7.81821 17.0145 8.18942 17.2129 8.59355 17.2933C8.99768 17.3737 9.41657 17.3324 9.79725 17.1747C10.1779 17.0171 10.5033 16.75 10.7322 16.4074C10.9611 16.0648 11.0833 15.662 11.0833 15.25C11.0833 14.6975 10.8638 14.1675 10.4731 13.7768C10.0824 13.3861 9.55252 13.1667 8.99999 13.1667ZM8.99999 16.0833C8.83517 16.0833 8.67405 16.0344 8.53701 15.9429C8.39997 15.8513 8.29316 15.7212 8.23009 15.5689C8.16702 15.4166 8.15051 15.2491 8.18267 15.0874C8.21482 14.9258 8.29419 14.7773 8.41073 14.6607C8.52728 14.5442 8.67576 14.4648 8.83741 14.4327C8.99906 14.4005 9.16662 14.417 9.31889 14.4801C9.47116 14.5432 9.60131 14.65 9.69288 14.787C9.78445 14.9241 9.83332 15.0852 9.83332 15.25C9.83332 15.471 9.74552 15.683 9.58924 15.8392C9.43296 15.9955 9.221 16.0833 8.99999 16.0833ZM15.25 13.1667C14.8379 13.1667 14.4352 13.2888 14.0926 13.5178C13.7499 13.7467 13.4829 14.0721 13.3252 14.4527C13.1676 14.8334 13.1263 15.2523 13.2067 15.6564C13.2871 16.0606 13.4855 16.4318 13.7768 16.7231C14.0682 17.0145 14.4394 17.2129 14.8436 17.2933C15.2477 17.3737 15.6666 17.3324 16.0472 17.1747C16.4279 17.0171 16.7533 16.75 16.9822 16.4074C17.2111 16.0648 17.3333 15.662 17.3333 15.25C17.3333 14.6975 17.1138 14.1675 16.7231 13.7768C16.3324 13.3861 15.8025 13.1667 15.25 13.1667ZM15.25 16.0833C15.0852 16.0833 14.9241 16.0344 14.787 15.9429C14.65 15.8513 14.5432 15.7212 14.4801 15.5689C14.417 15.4166 14.4005 15.2491 14.4327 15.0874C14.4648 14.9258 14.5442 14.7773 14.6607 14.6607C14.7773 14.5442 14.9258 14.4648 15.0874 14.4327C15.2491 14.4005 15.4166 14.417 15.5689 14.4801C15.7212 14.5432 15.8513 14.65 15.9429 14.787C16.0344 14.9241 16.0833 15.0852 16.0833 15.25C16.0833 15.471 15.9955 15.683 15.8392 15.8392C15.683 15.9955 15.471 16.0833 15.25 16.0833Z" fill="black"/>
</svg>
