<svg width="11" height="11" viewBox="0 0 11 11" fill="none" xmlns="http://www.w3.org/2000/svg">
<path d="M4.95833 7.875H5.54167V4.66667H4.95833V7.875ZM5.25 3.83658C5.35189 3.83658 5.43725 3.80217 5.50608 3.73333C5.57492 3.6645 5.60914 3.57914 5.60875 3.47725C5.60836 3.37536 5.57394 3.29019 5.5055 3.22175C5.43706 3.15331 5.35189 3.11889 5.25 3.1185C5.14811 3.11811 5.06294 3.15253 4.9945 3.22175C4.92606 3.29097 4.89164 3.37633 4.89125 3.47783C4.89086 3.57933 4.92528 3.6645 4.9945 3.73333C5.06372 3.80217 5.14889 3.83658 5.25 3.83658ZM5.25175 10.5C4.52569 10.5 3.84319 10.3623 3.20425 10.087C2.56531 9.81128 2.00939 9.43717 1.5365 8.96467C1.06361 8.49217 0.689306 7.93683 0.413583 7.29867C0.137861 6.6605 0 5.97819 0 5.25175C0 4.52531 0.137861 3.84281 0.413583 3.20425C0.688917 2.56531 1.06244 2.00939 1.53417 1.5365C2.00589 1.06361 2.56142 0.689306 3.20075 0.413583C3.84008 0.137861 4.52258 0 5.24825 0C5.97392 0 6.65642 0.137861 7.29575 0.413583C7.93469 0.688917 8.49061 1.06264 8.9635 1.53475C9.43639 2.00686 9.81069 2.56239 10.0864 3.20133C10.3621 3.84028 10.5 4.52258 10.5 5.24825C10.5 5.97392 10.3623 6.65642 10.087 7.29575C9.81167 7.93508 9.43756 8.491 8.96467 8.9635C8.49178 9.436 7.93644 9.81031 7.29867 10.0864C6.66089 10.3625 5.97858 10.5004 5.25175 10.5ZM5.25 9.91667C6.55278 9.91667 7.65625 9.46458 8.56042 8.56042C9.46458 7.65625 9.91667 6.55278 9.91667 5.25C9.91667 3.94722 9.46458 2.84375 8.56042 1.93958C7.65625 1.03542 6.55278 0.583333 5.25 0.583333C3.94722 0.583333 2.84375 1.03542 1.93958 1.93958C1.03542 2.84375 0.583333 3.94722 0.583333 5.25C0.583333 6.55278 1.03542 7.65625 1.93958 8.56042C2.84375 9.46458 3.94722 9.91667 5.25 9.91667Z" fill="#59636E"/>
</svg>
