<svg width="18" height="14" viewBox="0 0 18 14" fill="none" xmlns="http://www.w3.org/2000/svg">
<path d="M10.8333 7.22916C10.1535 7.22916 9.48885 7.02755 8.92356 6.64983C8.35827 6.27212 7.91767 5.73525 7.6575 5.10713C7.39732 4.47901 7.32925 3.78784 7.46188 3.12103C7.59452 2.45422 7.92191 1.84172 8.40265 1.36098C8.8834 0.880235 9.4959 0.552845 10.1627 0.420209C10.8295 0.287572 11.5207 0.355646 12.1488 0.615822C12.7769 0.875998 13.3138 1.31659 13.6915 1.88189C14.0692 2.44718 14.2708 3.11178 14.2708 3.79166C14.2708 4.70334 13.9087 5.57768 13.264 6.22234C12.6194 6.86699 11.745 7.22916 10.8333 7.22916ZM10.8333 1.72916C10.4254 1.72916 10.0266 1.85012 9.68747 2.07675C9.34829 2.30338 9.08394 2.6255 8.92783 3.00237C8.77173 3.37925 8.73088 3.79395 8.81046 4.19403C8.89005 4.59412 9.08648 4.96162 9.37493 5.25007C9.66337 5.53851 10.0309 5.73495 10.431 5.81453C10.831 5.89411 11.2457 5.85326 11.6226 5.69716C11.9995 5.54105 12.3216 5.2767 12.5482 4.93752C12.7749 4.59835 12.8958 4.19958 12.8958 3.79166C12.8958 3.24465 12.6785 2.72004 12.2917 2.33325C11.9049 1.94646 11.3803 1.72916 10.8333 1.72916ZM17.25 13.6458C17.0684 13.6435 16.8949 13.5703 16.7665 13.4418C16.6381 13.3134 16.5649 13.1399 16.5625 12.9583C16.5625 11.1708 15.5908 9.97916 10.8333 9.97916C6.07583 9.97916 5.10417 11.1708 5.10417 12.9583C5.10417 13.1407 5.03173 13.3155 4.9028 13.4445C4.77387 13.5734 4.599 13.6458 4.41667 13.6458C4.23433 13.6458 4.05946 13.5734 3.93053 13.4445C3.8016 13.3155 3.72917 13.1407 3.72917 12.9583C3.72917 8.60416 8.70667 8.60416 10.8333 8.60416C12.96 8.60416 17.9375 8.60416 17.9375 12.9583C17.9351 13.1399 17.8619 13.3134 17.7335 13.4418C17.6051 13.5703 17.4316 13.6435 17.25 13.6458ZM5.62667 7.97166H5.33333C4.60399 7.90115 3.93252 7.54381 3.46665 6.97823C3.00078 6.41265 2.77866 5.68517 2.84917 4.95582C2.91967 4.22648 3.27702 3.55501 3.8426 3.08914C4.40817 2.62327 5.13565 2.40115 5.865 2.47166C5.95852 2.47568 6.05023 2.49875 6.13452 2.53947C6.2188 2.58018 6.29389 2.63768 6.35517 2.70843C6.41645 2.77919 6.46263 2.86171 6.4909 2.95095C6.51916 3.04019 6.5289 3.13425 6.51952 3.22739C6.51015 3.32052 6.48185 3.41076 6.43637 3.49257C6.39089 3.57438 6.32918 3.64605 6.25503 3.70317C6.18087 3.76029 6.09583 3.80167 6.00512 3.82476C5.91441 3.84786 5.81994 3.85219 5.7275 3.83749C5.54856 3.81965 5.36786 3.83805 5.19619 3.8916C5.02452 3.94515 4.8654 4.03275 4.72833 4.14916C4.58912 4.26145 4.47365 4.40034 4.38866 4.55772C4.30368 4.7151 4.25088 4.88783 4.23333 5.06582C4.21438 5.24606 4.23148 5.42826 4.28364 5.60181C4.33581 5.77537 4.42199 5.93681 4.53716 6.07672C4.65234 6.21664 4.79421 6.33224 4.9545 6.41678C5.1148 6.50133 5.29032 6.55312 5.47083 6.56916C5.76924 6.59468 6.06799 6.52401 6.32333 6.36749C6.47893 6.27146 6.6663 6.24117 6.84422 6.28329C7.02215 6.32541 7.17605 6.43648 7.27208 6.59207C7.36811 6.74767 7.3984 6.93504 7.35628 7.11296C7.31417 7.29089 7.20309 7.44479 7.0475 7.54082C6.62235 7.81199 6.13082 7.96103 5.62667 7.97166ZM0.75 12.9583C0.568402 12.956 0.39491 12.8828 0.266489 12.7543C0.138069 12.6259 0.0648741 12.4524 0.0625 12.2708C0.0625 9.79582 0.7225 8.14582 3.95833 8.14582C4.14067 8.14582 4.31554 8.21826 4.44447 8.34719C4.5734 8.47612 4.64583 8.65099 4.64583 8.83332C4.64583 9.01566 4.5734 9.19053 4.44447 9.31946C4.31554 9.44839 4.14067 9.52082 3.95833 9.52082C1.80417 9.52082 1.4375 10.2083 1.4375 12.2708C1.43513 12.4524 1.36193 12.6259 1.23351 12.7543C1.10509 12.8828 0.931598 12.956 0.75 12.9583Z" fill="black"/>
</svg>
